<?xml version="1.0" encoding="UTF-8" standalone="no"?>
<!-- Created with Inkscape (http://www.inkscape.org/) -->

<svg
   width="50mm"
   height="50mm"
   viewBox="0 0 50 50.000001"
   version="1.1"
   id="svg5"
   xml:space="preserve"
   inkscape:version="1.2.2 (732a01da63, 2022-12-09)"
   sodipodi:docname="icon.svg"
   inkscape:export-filename="nominatim.png"
   inkscape:export-xdpi="65.024002"
   inkscape:export-ydpi="65.024002"
   xmlns:inkscape="http://www.inkscape.org/namespaces/inkscape"
   xmlns:sodipodi="http://sodipodi.sourceforge.net/DTD/sodipodi-0.dtd"
   xmlns:xlink="http://www.w3.org/1999/xlink"
   xmlns="http://www.w3.org/2000/svg"
   xmlns:svg="http://www.w3.org/2000/svg"><sodipodi:namedview
     id="namedview7"
     pagecolor="#ffffff"
     bordercolor="#000000"
     borderopacity="0.25"
     inkscape:showpageshadow="2"
     inkscape:pageopacity="0.0"
     inkscape:pagecheckerboard="0"
     inkscape:deskcolor="#d1d1d1"
     inkscape:document-units="mm"
     showgrid="false"
     inkscape:zoom="0.78127804"
     inkscape:cx="189.4332"
     inkscape:cy="212.47237"
     inkscape:window-width="1920"
     inkscape:window-height="1057"
     inkscape:window-x="-8"
     inkscape:window-y="-8"
     inkscape:window-maximized="1"
     inkscape:current-layer="g2879" /><defs
     id="defs2"><clipPath
       clipPathUnits="userSpaceOnUse"
       id="clipPath1032"><use
         x="0"
         y="0"
         xlink:href="#path1027"
         id="use1034" /></clipPath></defs><g
     inkscape:label="Layer 1"
     inkscape:groupmode="layer"
     id="layer1"
     transform="translate(-56.322918,-58.928493)"><g
       id="g2879"
       transform="matrix(0.973226,0,0,1,1.9433285,0.53879605)"><path
         style="fill:#d5d2c6;stroke:#e6e6e6;stroke-width:1.76884012;stroke-linecap:round;stroke-linejoin:round;stroke-dasharray:none;stroke-opacity:1;stop-color:#000000;fill-opacity:1"
         d="m 59.870272,60.889736 -1.143274,12.97351 1.143274,11.494073 -1.371928,20.256871 7.431276,0.68283 24.008736,-1.70705 10.632434,0.79663 3.88714,-24.695192 -0.91463,-11.835482 1.2576,-7.738583 -10.861086,0.227605 -21.836519,-0.455212 z"
         id="path1027-6" /><path
         style="fill:none;stroke:#565656;stroke-width:0.70044041;stroke-linecap:round;stroke-linejoin:round;stroke-dasharray:none;stroke-opacity:1;stop-color:#000000"
         d="m 58.717567,59.76662 -1.197325,13.649499 1.197325,12.092977 -1.436789,21.312374 7.782609,0.7184 25.143814,-1.79599 11.135119,0.83813 4.0709,-25.981944 -0.95786,-12.452175 1.31706,-8.141806 -11.374582,0.239465 -22.868899,-0.47893 z"
         id="path1027" /><g
         id="g5001"><path
           style="fill:none;stroke:#5288e1;stroke-width:1.05927675;stroke-linecap:round;stroke-linejoin:round;stroke-dasharray:none;stroke-opacity:1;paint-order:markers fill stroke;stop-color:#000000"
           d="m 62.642053,65.813109 5.04408,0.598662 4.921055,3.352509"
           id="path1765" /><path
           style="fill:none;stroke:#5f8ce0;stroke-width:2.57976942;stroke-linecap:round;stroke-linejoin:round;stroke-dasharray:none;stroke-opacity:1;paint-order:markers fill stroke;stop-color:#000000"
           d="m 74.944688,71.320802 c 0,0 6.520397,-0.119733 7.012503,-0.119733 0.492105,0 5.659212,2.394649 6.274344,3.113044 0.615131,0.718395 1.599343,2.394649 2.091449,3.831438 0.492106,1.436789 1.845395,2.394649 2.460527,2.993311 0.615131,0.598663 3.075658,1.556522 3.444738,2.035452 0.369077,0.47893 0.123026,7.064215 0.123026,7.902341"
           id="path1767"
           sodipodi:nodetypes="csssssc" /><path
           style="fill:none;stroke:#5288e1;stroke-width:1.05927675;stroke-linecap:round;stroke-linejoin:round;stroke-dasharray:none;stroke-opacity:1;paint-order:markers fill stroke;stop-color:#000000"
           d="m 96.474301,91.735184 0.73816,4.968896 2.522038,4.48997"
           id="path2591" /><path
           style="fill:none;stroke:#5f8ce0;stroke-width:2.57976942;stroke-linecap:round;stroke-linejoin:round;stroke-dasharray:none;stroke-opacity:1;paint-order:markers fill stroke;stop-color:#000000"
           d="m 87.062786,74.074648 c 0,0.299331 -0.861186,3.711706 -0.922698,3.951171 -0.06151,0.239465 -0.615131,3.771572 -0.36908,4.729431 0.246052,0.95786 1.353289,2.813714 1.599343,4.250502 0.246052,1.436791 0.430592,2.993311 0.430592,3.352509 0,0.359198 0,1.616387 0,1.616387"
           id="path2593" /><path
           style="fill:none;stroke:#5288e1;stroke-width:1.05927675;stroke-linecap:round;stroke-linejoin:round;stroke-dasharray:none;stroke-opacity:1;paint-order:markers fill stroke;stop-color:#000000"
           d="m 87.923969,93.291707 0.676646,2.574248 c 0,0 0.615131,1.317056 1.107237,1.736119 0.492106,0.419063 0.922698,0.718394 1.414804,1.197324 0.492103,0.47893 1.291775,1.736122 1.291775,1.736122"
           id="path2595" /><path
           style="fill:#7cca87;fill-opacity:1;stroke:#5f8ce0;stroke-width:0;stroke-linecap:round;stroke-linejoin:round;stroke-dasharray:none;stroke-opacity:1;paint-order:markers fill stroke;stop-color:#000000"
           d="m 83.741072,64.974982 -0.861183,4.070903 4.921053,2.334783 c 0,0 2.645068,1.496656 3.137174,2.21505 0.492105,0.718395 0.78303,1.350794 1.230262,2.813712 0.290202,0.949266 1.414803,1.43679 1.722369,1.736121 0.307568,0.299331 1.291777,1.616388 2.891121,0.359197 0.291082,-0.22881 2.152961,0.179599 2.152961,0.179599 l 2.029931,-0.419063 c 0,0 -0.36908,-4.13077 -0.43059,-4.370235 -0.0615,-0.239465 -0.861184,-3.472241 -0.922698,-3.771572 -0.06151,-0.299331 -1.4148,-2.155184 -1.722366,-2.574248 -0.307569,-0.419063 -2.891121,-2.634113 -2.891121,-2.634113 0,0 -3.444739,-0.897994 -3.69079,-0.897994 -0.246054,0 -2.583555,-0.598662 -3.690793,-0.598662 -1.107235,0 -1.968421,-0.05987 -2.460526,0.119732 -0.492106,0.179599 -1.414804,1.43679 -1.414804,1.43679 z"
           id="path2651"
           sodipodi:nodetypes="cccsssscccsscsssc" /><path
           style="fill:#7cca87;fill-opacity:1;stroke:#5f8ce0;stroke-width:0;stroke-linecap:round;stroke-linejoin:round;stroke-dasharray:none;stroke-opacity:1;paint-order:markers fill stroke;stop-color:#000000"
           d="m 84.84831,92.93251 0.36908,-3.472242 c 0,0 -1.783883,-5.208362 -1.599343,-5.687291 0.18454,-0.47893 -0.18454,-3.35251 -0.18454,-3.951172 0,-0.598662 0.676649,-4.489966 0.430593,-4.669565 -0.246053,-0.179599 -2.399015,-1.736121 -3.629278,-1.616388 -0.312101,0.03037 -7.9352,-0.119732 -7.9352,-0.119732 0,0 -0.430592,3.053177 -0.492106,3.47224 -0.06151,0.419064 0.738158,6.34582 0.738158,6.34582 l 2.337501,4.609701 3.444738,2.873578 z"
           id="path4989"
           sodipodi:nodetypes="ccsssscscccc" /><path
           style="fill:#7cca87;fill-opacity:1;stroke:#5f8ce0;stroke-width:0;stroke-linecap:round;stroke-linejoin:round;stroke-dasharray:none;stroke-opacity:1;paint-order:markers fill stroke;stop-color:#000000"
           d="m 70.208174,80.300735 -3.690791,2.69398 -3.444738,2.813713 1.906908,2.813711 c 0,0 3.321712,0.239467 3.629278,0.05987 0.307566,-0.179599 1.783882,-0.838125 2.152961,-0.838125 0.369079,0 2.399014,-0.538798 2.399014,-0.538798 z"
           id="path4991" /></g><text
         xml:space="preserve"
         style="font-size:7.47961px;font-family:sans-serif;-inkscape-font-specification:'sans-serif, Normal';fill:#19269b;fill-opacity:1;stroke:#1d396d;stroke-width:0.454329;stroke-linecap:round;stroke-linejoin:round;stroke-dasharray:none;stroke-opacity:1;paint-order:markers fill stroke;stop-color:#000000"
         x="105.78885"
         y="9.4118881"
         id="text5111"
         transform="matrix(0.82862157,0.56916464,-0.58581202,0.80444021,0,0)"><tspan
           sodipodi:role="line"
           id="tspan5109"
           style="fill:#19269b;fill-opacity:1;stroke:#1d396d;stroke-width:0.454329;stroke-dasharray:none;stroke-opacity:1"
           x="105.78885"
           y="9.4118881">OSM</tspan></text><g
         id="g314"
         transform="matrix(0.05989704,0.35923254,-0.35923254,0.05989704,137.52684,38.689355)"><g
           id="g2157"
           transform="matrix(1.2253344,0,0,1.2253344,71.298384,-71.576867)"><path
             style="fill:#ca7c3a;fill-opacity:1;stroke:#25314b;stroke-width:2.48272439;stroke-linecap:round;stroke-linejoin:round;stroke-dasharray:none;stroke-opacity:1;stop-color:#000000"
             d="m 52.589543,254.13652 -18.273393,-25.1123 0.125005,-5.42958 5.99458,-3.75166 4.650208,2.09992 17.44139,23.57288 0.23947,2.03546 -8.38127,6.70501 z"
             id="path433"
             sodipodi:nodetypes="ccccccccc" /><path
             style="fill:#e1a66a;fill-opacity:1;stroke:none;stroke-width:5.39999;stroke-linecap:round;stroke-linejoin:round;stroke-dasharray:none;stroke-opacity:1;stop-color:#000000"
             d="m 40.943933,223.14092 14.693556,20.00875 1.915718,6.82474 -4.549831,2.87359 -17.387873,-24.61562"
             id="path2159"
             sodipodi:nodetypes="ccccc" /><path
             style="fill:#ffffff;fill-opacity:1;stroke:#2d2d4e;stroke-width:0;stroke-linecap:round;stroke-linejoin:round;stop-color:#000000"
             d="m 30.840527,170.70091 c 0,0 -3.178603,-10.69571 -14.248162,-12.57191 -14.1284274,-2.39465 -20.2794144,5.06101 -19.8755844,5.98662 0.40383,0.92561 9.33913,-2.03545 16.8822744,-0.47893 7.543144,1.55652 15.684952,7.78261 17.241472,7.06422 z"
             id="path1457"
             sodipodi:nodetypes="cszsc" /><path
             style="fill:#ffffff;fill-opacity:1;stroke:#2d2d4e;stroke-width:0;stroke-linecap:round;stroke-linejoin:round;stop-color:#000000"
             d="m -10.492659,199.90835 c 0,0 3.3357836,10.64774 14.4317746,12.3607 14.1621634,2.18631 20.2026764,-5.35913 19.7852594,-6.27869 -0.417419,-0.91956 -9.30814,2.17277 -16.8733904,0.72751 -7.56525105,-1.44526 -15.797873,-7.55076 -17.3436436,-6.80952 z"
             id="path1457-2"
             sodipodi:nodetypes="cszsc" /><circle
             style="fill:none;fill-opacity:1;stroke:#283756;stroke-width:5.4;stroke-linecap:round;stroke-linejoin:round;stroke-dasharray:none;stroke-opacity:1;stop-color:#000000"
             id="path1587"
             cx="9.9816914"
             cy="185.37758"
             r="34.373432" /><path
             style="fill:#283756;fill-opacity:1;stroke:none;stroke-width:5.39999;stroke-linecap:round;stroke-linejoin:round;stroke-dasharray:none;stroke-opacity:1;stop-color:#000000"
             d="m 40.206615,220.00501 -5.92645,4.48717 -6.349774,-8.88968 6.011114,-4.14851 z"
             id="path1919" /></g></g><path
         style="fill:none;stroke:#565656;stroke-width:0.7;stroke-linecap:round;stroke-linejoin:round;stroke-dasharray:none;stroke-opacity:1;stop-color:#000000"
         d="m 62.549005,60.065951 v 1.616388"
         id="path973" /><path
         style="fill:none;stroke:#565656;stroke-width:0.7;stroke-linecap:round;stroke-linejoin:round;stroke-dasharray:none;stroke-opacity:1;stop-color:#000000"
         d="m 69.792818,60.006085 -0.05987,2.21505"
         id="path975" /><path
         style="fill:none;stroke:#565656;stroke-width:0.7;stroke-linecap:round;stroke-linejoin:round;stroke-dasharray:none;stroke-opacity:1;stop-color:#000000"
         d="m 77.276096,60.125817 -0.419063,1.91572"
         id="path977" /><path
         style="fill:none;stroke:#565656;stroke-width:0.7;stroke-linecap:round;stroke-linejoin:round;stroke-dasharray:none;stroke-opacity:1;stop-color:#000000"
         d="m 84.639642,60.365282 v 0.718395"
         id="path979" /><path
         style="fill:none;stroke:#565656;stroke-width:0.7;stroke-linecap:round;stroke-linejoin:round;stroke-dasharray:none;stroke-opacity:1;stop-color:#000000"
         d="m 93.499842,60.544881 c -0.05987,0.239465 -0.239464,1.197324 -0.239464,1.197324"
         id="path981" /><path
         style="fill:none;stroke:#565656;stroke-width:0.7;stroke-linecap:round;stroke-linejoin:round;stroke-dasharray:none;stroke-opacity:1;stop-color:#000000"
         d="m 100.38446,60.485015 0.11973,1.616388"
         id="path983" /><path
         style="fill:none;stroke:#565656;stroke-width:0.7;stroke-linecap:round;stroke-linejoin:round;stroke-dasharray:none;stroke-opacity:1;stop-color:#000000"
         d="m 58.537968,67.130166 2.813713,0.05987"
         id="path985" /><path
         style="fill:none;stroke:#565656;stroke-width:0.7;stroke-linecap:round;stroke-linejoin:round;stroke-dasharray:none;stroke-opacity:1;stop-color:#000000"
         d="m 57.939306,74.912775 2.454515,0.119732"
         id="path987" /><path
         style="fill:none;stroke:#565656;stroke-width:0.7;stroke-linecap:round;stroke-linejoin:round;stroke-dasharray:none;stroke-opacity:1;stop-color:#000000"
         d="m 58.777433,82.396053 2.035452,0.05987"
         id="path989" /><path
         style="fill:none;stroke:#565656;stroke-width:0.7;stroke-linecap:round;stroke-linejoin:round;stroke-dasharray:none;stroke-opacity:1;stop-color:#000000"
         d="m 58.537968,90.83719 2.394649,0.179599"
         id="path991" /><path
         style="fill:none;stroke:#565656;stroke-width:0.7;stroke-linecap:round;stroke-linejoin:round;stroke-dasharray:none;stroke-opacity:1;stop-color:#000000"
         d="m 58.238637,98.021138 2.155184,0.239464"
         id="path993" /><path
         style="fill:none;stroke:#565656;stroke-width:0.7;stroke-linecap:round;stroke-linejoin:round;stroke-dasharray:none;stroke-opacity:1;stop-color:#000000"
         d="m 67.158704,107.00107 0.119733,-2.09532"
         id="path995" /><path
         style="fill:none;stroke:#565656;stroke-width:0.7;stroke-linecap:round;stroke-linejoin:round;stroke-dasharray:none;stroke-opacity:1;stop-color:#000000"
         d="m 74.402518,106.70174 0.119732,-1.73612"
         id="path997" /><path
         style="fill:none;stroke:#565656;stroke-width:0.7;stroke-linecap:round;stroke-linejoin:round;stroke-dasharray:none;stroke-opacity:1;stop-color:#000000"
         d="m 81.586465,106.10308 -0.05987,-1.61639"
         id="path999" /><path
         style="fill:none;stroke:#565656;stroke-width:0.7;stroke-linecap:round;stroke-linejoin:round;stroke-dasharray:none;stroke-opacity:1;stop-color:#000000"
         d="M 89.548673,105.62415 89.428939,103.7683"
         id="path1001" /><path
         style="fill:none;stroke:#565656;stroke-width:0.7;stroke-linecap:round;stroke-linejoin:round;stroke-dasharray:none;stroke-opacity:1;stop-color:#000000"
         d="m 97.151682,105.98334 0.239466,-1.67625"
         id="path1003" /><path
         style="fill:none;stroke:#565656;stroke-width:0.7;stroke-linecap:round;stroke-linejoin:round;stroke-dasharray:none;stroke-opacity:1;stop-color:#000000"
         d="m 59.555694,106.76161 0.239465,-2.15519"
         id="path1005" /><path
         style="fill:none;stroke:#565656;stroke-width:0.7;stroke-linecap:round;stroke-linejoin:round;stroke-dasharray:none;stroke-opacity:1;stop-color:#000000"
         d="M 101.82125,100.17632 99.725929,99.757257"
         id="path1007" /><path
         style="fill:none;stroke:#565656;stroke-width:0.7;stroke-linecap:round;stroke-linejoin:round;stroke-dasharray:none;stroke-opacity:1;stop-color:#000000"
         d="m 103.25804,93.471305 -2.57425,-0.419063"
         id="path1009" /><path
         style="fill:none;stroke:#565656;stroke-width:0.7;stroke-linecap:round;stroke-linejoin:round;stroke-dasharray:none;stroke-opacity:1;stop-color:#000000"
         d="m 104.75469,84.012441 -1.31705,-0.179599"
         id="path1011" /><path
         style="fill:none;stroke:#565656;stroke-width:0.7;stroke-linecap:round;stroke-linejoin:round;stroke-dasharray:none;stroke-opacity:1;stop-color:#000000"
         d="M 104.93429,75.511437 H 104.0363"
         id="path1013" /><path
         style="fill:none;stroke:#565656;stroke-width:0.7;stroke-linecap:round;stroke-linejoin:round;stroke-dasharray:none;stroke-opacity:1;stop-color:#000000"
         d="m 104.69483,66.890701 -1.91572,-0.05987"
         id="path1015" /></g></g></svg>
