<?xml version="1.0" encoding="UTF-8" standalone="no"?>
<svg
   height="24"
   width="24"
   version="1.1"
   id="svg212"
   sodipodi:docname="icon.svg"
   inkscape:version="1.2.2 (732a01da63, 2022-12-09)"
   inkscape:export-filename="nominatim.png"
   inkscape:export-xdpi="512"
   inkscape:export-ydpi="512"
   xmlns:inkscape="http://www.inkscape.org/namespaces/inkscape"
   xmlns:sodipodi="http://sodipodi.sourceforge.net/DTD/sodipodi-0.dtd"
   xmlns="http://www.w3.org/2000/svg"
   xmlns:svg="http://www.w3.org/2000/svg">
  <defs
     id="defs216" />
  <sodipodi:namedview
     id="namedview214"
     pagecolor="#ffffff"
     bordercolor="#000000"
     borderopacity="0.25"
     inkscape:showpageshadow="2"
     inkscape:pageopacity="0.0"
     inkscape:pagecheckerboard="0"
     inkscape:deskcolor="#d1d1d1"
     showgrid="false"
     inkscape:zoom="17.791666"
     inkscape:cx="7.9812647"
     inkscape:cy="16.805621"
     inkscape:window-width="1920"
     inkscape:window-height="1057"
     inkscape:window-x="-8"
     inkscape:window-y="-8"
     inkscape:window-maximized="1"
     inkscape:current-layer="svg212" />
  <path
     style="fill:#78c47e;fill-opacity:1;stroke:#3a6737;stroke-width:0;stroke-linecap:round;stroke-linejoin:round;stroke-dasharray:none;stroke-opacity:1;paint-order:markers fill stroke;stop-color:#000000"
     d="M 7.4320731,-3.656421 -0.51666821,6.0410433 18.560311,20.984677 26.787258,11.247469 21.948462,7.5214965 c 0,0 -0.336129,-2.7260757 -3.249048,-4.6798215 -2.91292,-1.9537457 -6.428545,-2.7721235 -6.428545,-2.7721235 z"
     id="path2469"
     sodipodi:nodetypes="ccccczcc" />
  <g
     aria-label="OSM"
     transform="rotate(36.70988)"
     id="text724"
     style="font-size:8.71043px;-inkscape-font-specification:'sans-serif, Normal';fill:#274c2a;stroke:#274425;stroke-width:0.6;stroke-linecap:round;stroke-linejoin:round;paint-order:markers fill stroke;stop-color:#000000">
    <path
       d="m 11.256096,0.16454347 c 0,0.64457182 -0.202678,1.37512603 -0.423343,1.85710313 C 10.617896,2.4978168 10.026434,2.6495054 9.5967197,2.9166253 9.1728121,3.1837452 8.6501863,3.3173051 8.0288422,3.3173051 7.3842704,3.3173051 6.8471272,3.1837452 6.4174127,2.9166253 5.9935051,2.6495054 5.6770261,2.2749569 5.4679758,1.7929798 5.2589255,1.3110027 5.1544003,0.74772818 5.1544003,0.10315635 c 0,-0.63295793 0.1045252,-1.18752195 0.3135755,-1.66369215 0.2090503,-0.4819771 0.5255293,-0.8565256 0.9494369,-1.1236455 0.4297145,-0.2671199 0.9697612,-0.4006798 1.62014,-0.4006798 0.621344,0 1.1439698,0.1335599 1.5678774,0.4006798 0.4239069,0.2613129 0.9344579,0.490414 1.1493159,0.9723911 0.220664,0.4761702 0.50135,1.23176184 0.50135,1.87633367 z M 5.9818911,0.11186678 c 0,0.78393868 0.1654982,1.40237922 0.4964946,1.85532162 0.3309963,0.4471354 0.8478152,0.6707031 1.5504565,0.6707031 0.7026414,0 1.2165568,-0.2235677 1.5417462,-0.6707031 C 9.9015848,1.514246 10.067083,0.89580546 10.067083,0.11186678 10.067083,-0.67207194 9.9044883,-1.2847055 9.5792988,-1.726034 9.2541094,-2.1731694 8.740194,-2.3967371 8.0375527,-2.3967371 c -0.7084483,0 -1.2281707,0.2235677 -1.559167,0.6707031 -0.3309964,0.4413285 -0.4964946,1.05396206 -0.4964946,1.83790078 z"
       id="path2260"
       sodipodi:nodetypes="sccscssccsccsscscscscs" />
    <path
       d="m 17.395335,1.5837387 c 0,0.5516606 -0.212587,1.3410613 -0.613266,1.6488298 -0.400679,0.3077686 -1.008707,0.6525644 -1.688121,0.6525644 -0.348417,0 -0.850546,-0.032254 -1.146701,-0.084517 -0.296154,-0.052263 -0.839993,-0.4291932 -1.037429,-0.5221044 l 0.248216,-1.0744002 c 0.20905,0.092911 0.467459,0.177112 0.775228,0.2526024 0.313575,0.07549 0.635861,0.1132356 0.966858,0.1132356 0.458749,0 0.807167,-0.090008 1.045252,-0.2700233 0.238085,-0.1800156 0.357127,-0.4239076 0.357127,-0.7316761 0,-0.2032434 -0.04355,-0.3745485 -0.130656,-0.5139154 C 16.084738,0.91496771 15.933757,0.78721474 15.7189,0.67107567 15.504043,0.5549366 14.843805,1.0163249 14.472161,0.87695804 13.937921,0.68532858 13.692985,1.0351275 12.888298,0.03545169 12.646219,-0.2652866 12.287208,-1.3155348 12.287208,-1.797512 c 0,-0.3251894 0.125099,-1.1631549 0.300016,-1.7215978 0.08717,-0.2782906 0.835255,-1.0605422 1.131409,-1.1882952 0.296155,-0.127753 0.98534,-0.4829425 1.380213,-0.4829425 0.336803,0 0.934236,-0.00661 1.218776,0.057271 0.284541,0.063877 0.742888,0.036215 0.980974,0.14074 l -0.604127,2.8673638 c -0.214857,-0.092911 -0.450039,-0.1713051 -0.705545,-0.2351816 -0.255506,-0.063877 -0.516819,-0.095815 -0.783939,-0.095815 -0.389066,0 -0.682317,0.084201 -0.879753,0.2526025 -0.197437,0.1625947 -0.296155,0.3803554 -0.296155,0.6532823 0,0.2090503 0.04355,0.3832589 0.130656,0.5226258 0.08711,0.13936687 0.229375,0.26711984 0.426811,0.38325891 0.197437,0.11033212 0.505063,-0.18934236 0.841866,-0.0673963 0.365838,0.13355993 0.713328,0.14394955 0.963027,0.3007373 0.255506,0.15098079 0.699512,0.53132675 0.827265,0.74618403 0.13356,0.21485725 0.176633,0.92322356 0.176633,1.24841296 z"
       id="path2262"
       sodipodi:nodetypes="sssscccssssscssssssccsscssccccs" />
    <path
       d="M 21.947569,3.3580018 20.646051,-3.351667 20.163369,-3.9992903 c 0.01742,0.1800156 -0.03958,1.8794513 -0.02796,2.1872198 0.01161,0.3019616 0.02975,1.06253036 0.03304,1.39351036 l 0.03894,3.91786144 -1.577123,-0.064213 -0.0036,-8.9508838 2.956526,0.2017437 0.976025,7.6897071 0.254952,-2.33756768 0.99603,-3.22659912 1.884771,0.4685651 v 6.2192472 l -0.775229,0 v -3.82387888 c 0,-0.30196155 0.0058,-0.60101966 0.01742,-0.89717432 0.01742,-0.2961546 0.03194,-0.5371432 0.04355,-0.7229657 l -0.03484,0 -2.073083,5.4440189 z"
       id="path2264"
       sodipodi:nodetypes="ccccsccccccccccsccccc" />
  </g>
  <g
     stroke="#505050"
     id="g206">
    <path
       d="m17.961 7a5.961 6.074 0 0 1 -5.961 6.074 5.961 6.074 0 0 1 -5.961-6.074 5.961 6.074 0 0 1 5.961-6.074 5.961 6.074 0 0 1 5.961 6.074z"
       style="opacity:0.8;fill:#dfdddd;stroke-width:0.752;stroke-linecap:round;stroke-linejoin:round;stroke-dashoffset:7;fill-opacity:0.67021269"
       id="path200"
       transform="matrix(1.40036 0 0 1.3742 -1.674 -.75)" />
    <path
       d="m7.826 14.088c0 2.086 2.087 2.086 2.087 2.086l-7.304 7.304-2.087-2.087z"
       fill="#ffcc30"
       fill-rule="evenodd"
       stroke-linejoin="round"
       stroke-width="1.043"
       id="path202" />
    <path
       d="m6.26 15.653 2.088-2.087 2.087 2.087-2.087 2.087z"
       fill-rule="evenodd"
       stroke-linejoin="round"
       stroke-width="1.043"
       id="path204" />
  </g>
  <path
     d="m10.435 4.175c2.087-3.13 4.635-3.545 6.26-2.087 1.626 1.46-2.086 1.044-4.173 3.13-2.087 2.088 0 6.261-2.087 6.261s-2.087-4.173 0-7.304z"
     fill="#fcffff"
     fill-rule="evenodd"
     opacity=".7"
     id="path208"
     style="fill:#fcffff;fill-opacity:1;opacity:0.7415507" />
  <path
     d="m2.087 20.87 4.174-4.174"
     opacity=".5"
     stroke="#fcffff"
     stroke-linecap="round"
     stroke-linejoin="round"
     stroke-width="1.043"
     id="path210" />
</svg>
